Coordinates
version=1
nRows=31
nColumns=38
inDegrees=no

Units are S.I. units (second, meters, Newtons, ...)
If the header above contains a line with 'inDegrees', this indicates whether rotational values are in degrees (yes) or radians (no).

endheader
time	pelvis_tilt	pelvis_list	pelvis_rotation	pelvis_tx	pelvis_ty	pelvis_tz	hip_flexion_r	hip_adduction_r	hip_rotation_r	knee_angle_r	ankle_angle_r	subtalar_angle_r	mtp_angle_r	hip_flexion_l	hip_adduction_l	hip_rotation_l	knee_angle_l	ankle_angle_l	subtalar_angle_l	mtp_angle_l	lumbar_extension	lumbar_bending	lumbar_rotation	arm_flex_r	arm_add_r	arm_rot_r	elbow_flex_r	pro_sup_r	wrist_flex_r	wrist_dev_r	arm_flex_l	arm_add_l	arm_rot_l	elbow_flex_l	pro_sup_l	wrist_flex_l	wrist_dev_l
0	3.07605	1.40442	-1.61911	0.848438	-0.345787	0.957418	0.323611	-0.129892	-0.0297043	1.26181	-0.00188987	0	0	-0.137526	0.0838907	-0.373058	0.139829	0.107507	0	0	-0.247705	-0.0148303	0.156134	0.0600244	-0.339981	0.932097	0.369671	0.700166	0	0	-0.0171705	-0.189061	0.189608	0.486177	1.5708	0	0
0.01	3.04891	1.40378	-1.58648	0.847484	-0.338449	0.957803	0.335676	-0.123899	-0.0346432	1.23878	0.0211926	0	0	-0.152619	0.0825177	-0.360697	0.127763	0.110643	0	0	-0.250196	-0.00847074	0.148939	0.0641135	-0.341899	0.928584	0.370772	0.707979	0	0	-0.0115355	-0.189124	0.199028	0.478943	1.56755	0	0
0.02	3.01917	1.40309	-1.55249	0.8467	-0.331014	0.958245	0.345416	-0.116935	-0.0396772	1.21076	0.0427846	0	0	-0.166757	0.0798478	-0.351536	0.118791	0.112478	0	0	-0.252867	-0.00174932	0.142273	0.0691682	-0.343698	0.927642	0.370972	0.713849	0	0	-0.00801303	-0.189817	0.207703	0.476279	1.55851	0	0
0.03	2.98967	1.40226	-1.51972	0.846049	-0.32352	0.958689	0.353197	-0.110185	-0.0455946	1.17879	0.0649036	0	0	-0.180615	0.0770313	-0.34336	0.110741	0.114186	0	0	-0.255402	0.00496242	0.136554	0.0745237	-0.345647	0.928452	0.370991	0.718089	0	0	-0.00590894	-0.191479	0.218619	0.477342	1.54604	0	0
0.04	2.96237	1.40221	-1.48869	0.845364	-0.316277	0.959013	0.360438	-0.104305	-0.0530425	1.14296	0.0852086	0	0	-0.191949	0.0737941	-0.33887	0.104429	0.115324	0	0	-0.257534	0.0113876	0.130187	0.0810131	-0.347648	0.931237	0.37097	0.720746	0	0	-0.00460191	-0.193818	0.230399	0.481716	1.53116	0	0
0.05	2.93414	1.40235	-1.45648	0.844696	-0.309251	0.95926	0.366267	-0.0984258	-0.0619531	1.10268	0.100093	0	0	-0.202047	0.0700297	-0.334304	0.0990938	0.116312	0	0	-0.260029	0.0179141	0.123977	0.0879638	-0.349866	0.935072	0.371222	0.721702	0	0	-0.00283926	-0.195451	0.238719	0.486584	1.52092	0	0
0.06	2.99869	1.40259	-1.50773	0.842672	-0.299496	0.958351	0.360613	-0.120659	-0.0786286	1.03602	-0.0207529	0	0	-0.221344	0.0849543	-0.315328	0.083617	0.114687	0	0	-0.256652	0.0105634	0.105547	0.0880535	-0.351184	0.943491	0.373886	0.720889	0	0	-0.0146458	-0.205454	0.258764	0.509885	1.49536	0	0
0.07	2.96944	1.4027	-1.47606	0.842241	-0.292394	0.95847	0.362997	-0.113838	-0.089247	0.990388	-0.00808106	0	0	-0.231971	0.0809385	-0.310895	0.0784249	0.116673	0	0	-0.259595	0.0169915	0.101539	0.0948237	-0.353285	0.948855	0.374086	0.720233	0	0	-0.0134925	-0.206541	0.265969	0.515168	1.48275	0	0
0.08	2.9427	1.4024	-1.44707	0.84181	-0.285224	0.958588	0.362788	-0.108776	-0.104098	0.939683	0.00095502	0	0	-0.243313	0.0774568	-0.306646	0.0726495	0.117817	0	0	-0.262964	0.0230495	0.0982672	0.101136	-0.35565	0.954911	0.374868	0.717755	0	0	-0.0116788	-0.206515	0.271458	0.518574	1.47151	0	0
0.09	2.91651	1.40168	-1.41833	0.84137	-0.277941	0.958679	0.359444	-0.104705	-0.123387	0.883929	0.0090773	0	0	-0.255405	0.0739016	-0.302769	0.0662422	0.119125	0	0	-0.266798	0.0291319	0.0958587	0.106814	-0.358238	0.962799	0.37569	0.71269	0	0	-0.00884326	-0.20584	0.277191	0.520462	1.46051	0	0
0.1	2.89413	1.40134	-1.3939	0.841105	-0.270682	0.95865	0.354594	-0.100231	-0.143102	0.824768	0.0154044	0	0	-0.267366	0.0709529	-0.299245	0.0592111	0.120171	0	0	-0.270401	0.0341656	0.0942494	0.112484	-0.360708	0.972408	0.376703	0.705683	0	0	-0.00548512	-0.204965	0.281183	0.521714	1.45246	0	0
0.11	2.87461	1.40151	-1.37316	0.841033	-0.263409	0.958503	0.348702	-0.0953353	-0.163682	0.762499	0.0198556	0	0	-0.279097	0.0687186	-0.29592	0.0516562	0.12084	0	0	-0.273467	0.0382401	0.0939313	0.11785	-0.363019	0.981727	0.37774	0.698236	0	0	-0.0015845	-0.203492	0.282573	0.521491	1.44832	0	0
0.12	2.85866	1.40223	-1.35626	0.841119	-0.256146	0.958215	0.341901	-0.090377	-0.185654	0.697739	0.0248716	0	0	-0.289973	0.0669223	-0.293637	0.045176	0.121465	0	0	-0.276113	0.0412371	0.0943298	0.123143	-0.365254	0.992199	0.378687	0.689471	0	0	0.00282848	-0.202276	0.283758	0.520634	1.44647	0	0
0.13	2.84476	1.4054	-1.34277	0.841493	-0.248851	0.957524	0.337652	-0.0849864	-0.206675	0.633091	0.0295954	0	0	-0.297507	0.0657461	-0.294708	0.0404712	0.124191	0	0	-0.276268	0.0426521	0.0964764	0.127739	-0.366378	1.00028	0.377877	0.684629	0	0	0.00732539	-0.201369	0.285007	0.51961	1.44571	0	0
0.14	2.82668	1.40764	-1.32479	0.842036	-0.241478	0.956847	0.330192	-0.0771097	-0.228289	0.564674	0.0321709	0	0	-0.305997	0.0631839	-0.294859	0.0357521	0.127866	0	0	-0.277304	0.0447971	0.0984923	0.132431	-0.367498	1.00906	0.377553	0.678819	0	0	0.0118304	-0.200836	0.286901	0.518401	1.44461	0	0
0.15	2.80955	1.41016	-1.30809	0.8428	-0.234146	0.956056	0.322166	-0.0678105	-0.248795	0.495335	0.0317796	0	0	-0.313813	0.060669	-0.293873	0.032176	0.133029	0	0	-0.278357	0.0462719	0.100958	0.137171	-0.368572	1.01765	0.378147	0.671785	0	0	0.016385	-0.201034	0.28981	0.517807	1.44318	0	0
0.16	2.79536	1.41383	-1.29444	0.843752	-0.226922	0.955033	0.315169	-0.0577398	-0.266507	0.426618	0.0283539	0	0	-0.31934	0.0586285	-0.293525	0.0309127	0.138669	0	0	-0.278654	0.0465279	0.103353	0.142061	-0.369021	1.02591	0.378355	0.66519	0	0	0.0207012	-0.202329	0.293582	0.518676	1.44161	0	0
0.17	2.7755	1.41783	-1.27741	0.845131	-0.219507	0.953861	0.306931	-0.0435419	-0.275465	0.355751	0.0231174	0	0	-0.324779	0.0561649	-0.296443	0.0292362	0.143103	0	0	-0.277923	0.0468488	0.107569	0.146697	-0.369409	1.03654	0.37865	0.654582	0	0	0.0236558	-0.204522	0.298886	0.521246	1.43872	0	0
0.18	2.75639	1.42301	-1.26226	0.846718	-0.212139	0.952483	0.299911	-0.0283453	-0.274588	0.288721	0.0270858	0	0	-0.328691	0.054407	-0.300251	0.0285181	0.146542	0	0	-0.276243	0.0463251	0.11262	0.151608	-0.369728	1.04944	0.378893	0.638165	0	0	0.0266815	-0.206862	0.304652	0.523354	1.43202	0	0
0.19	2.73389	1.4283	-1.24499	0.848494	-0.204594	0.950996	0.291402	-0.0115065	-0.263551	0.221801	0.0291748	0	0	-0.332537	0.0526881	-0.304858	0.0281245	0.151038	0	0	-0.273937	0.045988	0.119037	0.155669	-0.370042	1.06227	0.378665	0.624649	0	0	0.0297785	-0.208318	0.308804	0.523375	1.42487	0	0
0.2	2.64312	1.42739	-1.16242	0.850242	-0.198363	0.950638	0.269521	0.0198576	-0.244337	0.133399	0.00518015	0	0	-0.334303	0.0393252	-0.316285	0.033243	0.160104	0	0	-0.278657	0.0577996	0.1312	0.163701	-0.374219	1.07423	0.379257	0.613859	0	0	0.0402965	-0.202244	0.306857	0.511774	1.42416	0	0
0.21	2.62191	1.43143	-1.14351	0.85169	-0.190395	0.94906	0.254844	0.0344027	-0.215373	0.0686002	-0.00434294	0	0	-0.338169	0.0372381	-0.319806	0.0350902	0.166772	0	0	-0.276632	0.058362	0.13431	0.166806	-0.374805	1.08355	0.379139	0.605762	0	0	0.0415266	-0.203558	0.308802	0.513107	1.42243	0	0
0.22	2.60795	1.43628	-1.13288	0.853211	-0.182358	0.94743	0.243465	0.0445111	-0.185143	0.0165105	-0.015548	0	0	-0.340683	0.0366116	-0.325429	0.0400453	0.172672	0	0	-0.273913	0.0573465	0.138102	0.169087	-0.374244	1.08816	0.37712	0.59992	0	0	0.0421579	-0.205185	0.31228	0.514648	1.4194	0	0
0.23	2.59704	1.44145	-1.12485	0.854727	-0.174043	0.945732	0.240344	0.0503657	-0.171135	0	-0.0187641	0	0	-0.343312	0.0365575	-0.32954	0.0447365	0.179898	0	0	-0.27005	0.0565386	0.140324	0.170897	-0.373328	1.09176	0.374718	0.599427	0	0	0.0412933	-0.205943	0.312176	0.515863	1.41951	0	0
0.24	2.59002	1.44147	-1.12035	0.856023	-0.165916	0.944233	0.247791	0.0578307	-0.162282	0	-0.020509	0	0	-0.348625	0.0371843	-0.328955	0.051853	0.183461	0	0	-0.271613	0.0575231	0.142684	0.172416	-0.37396	1.09371	0.37483	0.59916	0	0	0.0412712	-0.20601	0.312753	0.517903	1.41983	0	0
0.25	2.58067	1.44302	-1.11258	0.857175	-0.157214	0.942846	0.247509	0.0619874	-0.161022	0	-0.0205426	0	0	-0.353575	0.0354632	-0.333813	0.0588846	0.189275	0	0	-0.270702	0.0586357	0.143628	0.172931	-0.374759	1.09253	0.376206	0.59831	0	0	0.0400516	-0.205136	0.311034	0.519192	1.41958	0	0
0.26	2.56832	1.44569	-1.10052	0.858138	-0.147875	0.94162	0.239388	0.0625343	-0.165962	0	-0.0197221	0	0	-0.358876	0.0307769	-0.344475	0.065829	0.198638	0	0	-0.267473	0.0601714	0.143508	0.171927	-0.375608	1.08915	0.377387	0.597953	0	0	0.0365216	-0.204005	0.306992	0.522613	1.4192	0	0
0.27	2.56332	1.44425	-1.09342	0.858796	-0.138712	0.940645	0.239683	0.0640795	-0.171565	0.0119984	-0.0210874	0	0	-0.365403	0.0264915	-0.348655	0.0764552	0.204839	0	0	-0.268679	0.0634314	0.140883	0.17153	-0.376977	1.08663	0.378814	0.599281	0	0	0.0326869	-0.202851	0.302259	0.527215	1.41989	0	0
0.28	2.563	1.44233	-1.09022	0.859366	-0.129268	0.939776	0.242688	0.0634386	-0.186662	0.0463493	-0.0198907	0	0	-0.372738	0.0222378	-0.351873	0.0871555	0.209085	0	0	-0.270015	0.0667692	0.136944	0.170911	-0.378498	1.08531	0.380505	0.602118	0	0	0.0283819	-0.20106	0.295969	0.529988	1.42139	0	0
0.29	2.56368	1.44086	-1.08735	0.859926	-0.119487	0.938895	0.246426	0.0612348	-0.204945	0.0831484	-0.0138121	0	0	-0.379959	0.018059	-0.35442	0.0974813	0.212166	0	0	-0.270126	0.0699926	0.131796	0.169655	-0.379472	1.08448	0.381582	0.605592	0	0	0.0231319	-0.198959	0.288398	0.531812	1.42378	0	0
0.3	2.56163	1.43901	-1.08084	0.860608	-0.109467	0.938112	0.24627	0.0602407	-0.220077	0.109534	-0.00437842	0	0	-0.387047	0.0124179	-0.356677	0.108831	0.217905	0	0	-0.269965	0.0736604	0.125649	0.167933	-0.379449	1.08277	0.381618	0.609034	0	0	0.0175128	-0.196954	0.27946	0.532812	1.42663	0	0
